<svg width="24" height="24" viewBox="0 0 24 24" fill="none" xmlns="http://www.w3.org/2000/svg">
  <path d="M5.028 14.16C5.105 14.083 5.218 14.083 5.295 14.16L6.715 15.58C6.792 15.657 6.905 15.657 6.982 15.58L18.972 3.59C19.049 3.513 19.162 3.513 19.239 3.59L20.659 5.01C20.736 5.087 20.736 5.2 20.659 5.277L8.669 17.267C8.592 17.344 8.479 17.344 8.402 17.267L6.982 15.847C6.905 15.77 6.792 15.77 6.715 15.847L5.295 17.267C5.218 17.344 5.105 17.344 5.028 17.267L3.608 15.847C3.531 15.77 3.531 15.657 3.608 15.58L5.028 14.16Z" fill="#9945FF"/>
  <path d="M5.028 6.84C5.105 6.917 5.218 6.917 5.295 6.84L6.715 5.42C6.792 5.343 6.905 5.343 6.982 5.42L18.972 17.41C19.049 17.487 19.162 17.487 19.239 17.41L20.659 15.99C20.736 15.913 20.736 15.8 20.659 15.723L8.669 3.733C8.592 3.656 8.479 3.656 8.402 3.733L6.982 5.153C6.905 5.23 6.792 5.23 6.715 5.153L5.295 3.733C5.218 3.656 5.105 3.656 5.028 3.733L3.608 5.153C3.531 5.23 3.531 5.343 3.608 5.42L5.028 6.84Z" fill="#14F195"/>
</svg>