<svg width="19" height="19" viewBox="0 0 19 19" fill="none" xmlns="http://www.w3.org/2000/svg">
<path d="M1.05738 3.20075L1.91682 1.48188C2.52732 0.260884 4.1546 -0.00319064 5.11988 0.962092L7.40162 3.24383C8.01034 3.85255 8.16125 4.78249 7.77626 5.55247L7.51353 6.07793C7.09083 6.92333 7.0838 7.92371 7.57634 8.73042C7.96194 9.36197 8.4556 10.0873 8.94725 10.5789C9.37097 11.0026 9.96825 11.4279 10.5295 11.7841C11.4701 12.3812 12.67 12.2686 13.5673 11.6084C14.3675 11.0196 15.4803 11.1163 16.167 11.8343L18.1264 13.8831C19.057 14.8562 18.7797 16.4522 17.5754 17.0543L15.7991 17.9425C14.4186 18.6327 12.8545 18.9259 11.3953 18.423C9.64257 17.8188 7.13069 16.6108 4.75988 14.24C2.38906 11.8692 1.18108 9.35728 0.576896 7.60455C0.0739071 6.14538 0.367139 4.58124 1.05738 3.20075Z" fill="#00BF72"/>
</svg>
