<svg width="18" height="17" viewBox="0 0 18 17" fill="none" xmlns="http://www.w3.org/2000/svg">
<path fill-rule="evenodd" clip-rule="evenodd" d="M14 0H4C1.79086 0 0 1.79086 0 4V10.3656C0 12.3728 1.62719 14 3.63442 14C4.51476 14 5.36518 14.3195 6.0277 14.8992L7.68299 16.3476C8.43704 17.0074 9.56296 17.0074 10.317 16.3476L11.9723 14.8992C12.6348 14.3195 13.4852 14 14.3656 14C16.3728 14 18 12.3728 18 10.3656V4C18 1.79086 16.2091 0 14 0ZM4.25 5C4.25 4.58579 4.58579 4.25 5 4.25H12C12.4142 4.25 12.75 4.58579 12.75 5C12.75 5.41421 12.4142 5.75 12 5.75H5C4.58579 5.75 4.25 5.41421 4.25 5ZM5 8.25C4.58579 8.25 4.25 8.58579 4.25 9C4.25 9.41421 4.58579 9.75 5 9.75H13C13.4142 9.75 13.75 9.41421 13.75 9C13.75 8.58579 13.4142 8.25 13 8.25H5Z" fill="#00BF72"/>
</svg>
