<svg width="25" height="24" viewBox="0 0 25 24" fill="none" xmlns="http://www.w3.org/2000/svg">
<path d="M11.3335 17L13.3335 19C13.5305 19.197 13.7643 19.3532 14.0217 19.4598C14.2791 19.5665 14.5549 19.6213 14.8335 19.6213C15.1121 19.6213 15.3879 19.5665 15.6453 19.4598C15.9027 19.3532 16.1365 19.197 16.3335 19C16.5305 18.803 16.6867 18.5692 16.7933 18.3118C16.8999 18.0544 16.9548 17.7786 16.9548 17.5C16.9548 17.2214 16.8999 16.9456 16.7933 16.6882C16.6867 16.4308 16.5305 16.197 16.3335 16" stroke="white" stroke-width="2" stroke-linecap="round" stroke-linejoin="round"/>
<path d="M14.3337 13.9995L16.8337 16.4995C17.2315 16.8974 17.7711 17.1208 18.3337 17.1208C18.8963 17.1208 19.4359 16.8974 19.8337 16.4995C20.2315 16.1017 20.455 15.5621 20.455 14.9995C20.455 14.4369 20.2315 13.8974 19.8337 13.4995L15.9537 9.61953C15.3912 9.05773 14.6287 8.74217 13.8337 8.74217C13.0387 8.74217 12.2762 9.05773 11.7137 9.61953L10.8337 10.4995C10.4359 10.8974 9.89633 11.1208 9.33372 11.1208C8.77111 11.1208 8.23155 10.8974 7.83372 10.4995C7.4359 10.1017 7.2124 9.56214 7.2124 8.99953C7.2124 8.43692 7.4359 7.89735 7.83372 7.49953L10.6437 4.68953C11.556 3.77967 12.7456 3.20008 14.0244 3.0425C15.3031 2.88492 16.5979 3.15836 17.7037 3.81953L18.1737 4.09953C18.5995 4.35651 19.1058 4.44564 19.5937 4.34953L21.3337 3.99953" stroke="white" stroke-width="2" stroke-linecap="round" stroke-linejoin="round"/>
<path d="M21.3335 3L22.3335 14H20.3335M3.3335 3L2.3335 14L8.8335 20.5C9.23132 20.8978 9.77089 21.1213 10.3335 21.1213C10.8961 21.1213 11.4357 20.8978 11.8335 20.5C12.2313 20.1022 12.4548 19.5626 12.4548 19C12.4548 18.4374 12.2313 17.8978 11.8335 17.5M3.3335 4H11.3335" stroke="white" stroke-width="2" stroke-linecap="round" stroke-linejoin="round"/>
</svg>
