<svg width="10" height="10" viewBox="0 0 10 10" fill="none" xmlns="http://www.w3.org/2000/svg">
<path fill-rule="evenodd" clip-rule="evenodd" d="M7.2774 0.762332C7.18546 0.615424 7.05 0.500836 6.88988 0.434519C6.72977 0.368202 6.55296 0.353455 6.38407 0.392332L5.1854 0.667665C5.06256 0.6959 4.93491 0.6959 4.81207 0.667665L3.6134 0.392332C3.44451 0.353455 3.2677 0.368202 3.10758 0.434519C2.94747 0.500836 2.81201 0.615424 2.72007 0.762332L2.06673 1.805C2.00007 1.91167 1.91007 2.00167 1.8034 2.069L0.760733 2.72233C0.614078 2.81419 0.499659 2.94943 0.433356 3.10927C0.367053 3.26912 0.352156 3.44564 0.390733 3.61433L0.666067 4.81433C0.694199 4.93696 0.694199 5.06437 0.666067 5.187L0.390733 6.38633C0.352006 6.55512 0.366828 6.73179 0.433138 6.89177C0.499448 7.05175 0.613952 7.1871 0.760733 7.279L1.8034 7.93233C1.91007 7.999 2.00007 8.089 2.0674 8.19566L2.72073 9.23833C2.90873 9.539 3.2674 9.68767 3.6134 9.60833L4.81207 9.333C4.93491 9.30476 5.06256 9.30476 5.1854 9.333L6.38473 9.60833C6.55353 9.64706 6.73019 9.63224 6.89017 9.56593C7.05015 9.49962 7.1855 9.38511 7.2774 9.23833L7.93073 8.19566C7.9974 8.089 8.0874 7.999 8.19407 7.93233L9.2374 7.279C9.38419 7.18696 9.49864 7.05147 9.56483 6.89136C9.63103 6.73125 9.64567 6.55449 9.60673 6.38567L9.33207 5.187C9.30383 5.06416 9.30383 4.93651 9.33207 4.81367L9.6074 3.61433C9.64619 3.44561 9.63147 3.26899 9.56528 3.10902C9.49909 2.94905 9.38473 2.81366 9.23807 2.72167L8.19473 2.06833C8.08822 2.00154 7.99819 1.91152 7.9314 1.805L7.2774 0.762332ZM6.94207 3.51367C6.9833 3.43784 6.99352 3.34898 6.97057 3.26578C6.94762 3.18258 6.89329 3.11152 6.81901 3.06756C6.74474 3.0236 6.65631 3.01016 6.57233 3.03008C6.48835 3.04999 6.41536 3.1017 6.36873 3.17433L4.6254 6.125L3.57273 5.117C3.5415 5.08493 3.50414 5.05949 3.46286 5.04217C3.42158 5.02486 3.37724 5.01604 3.33248 5.01624C3.28772 5.01643 3.24346 5.02564 3.20234 5.04331C3.16121 5.06098 3.12407 5.08675 3.09312 5.11909C3.06217 5.15143 3.03805 5.18967 3.0222 5.23152C3.00635 5.27338 2.9991 5.31801 3.00086 5.36273C3.00263 5.40746 3.01339 5.45137 3.03249 5.49185C3.0516 5.53232 3.07866 5.56854 3.11207 5.59833L4.46807 6.89767C4.50436 6.93237 4.54802 6.95842 4.5958 6.97388C4.64357 6.98934 4.69422 6.99381 4.74396 6.98695C4.79371 6.98009 4.84126 6.96209 4.88306 6.93427C4.92487 6.90646 4.95985 6.86956 4.9854 6.82633L6.94207 3.51367Z" fill="#00BF72"/>
</svg>
