<svg width="20" height="19" viewBox="0 0 20 19" fill="none" xmlns="http://www.w3.org/2000/svg">
<path d="M0 16V14H2.75L2.35 13.65C1.48333 12.8833 0.875 12.0083 0.525 11.025C0.175 10.0417 0 9.05 0 8.05C0 6.2 0.554 4.554 1.662 3.112C2.77 1.67 4.216 0.716 6 0.25V2.35C4.8 2.78333 3.83333 3.521 3.1 4.563C2.36667 5.605 2 6.76733 2 8.05C2 8.8 2.14167 9.52933 2.425 10.238C2.70833 10.9467 3.15 11.6007 3.75 12.2L4 12.45V10H6V16H0ZM17.925 7H15.9C15.8167 6.41667 15.6377 5.85833 15.363 5.325C15.0883 4.79167 14.7173 4.28333 14.25 3.8L14 3.55V6H12V0H18V2H15.25L15.65 2.35C16.3333 3.05 16.8583 3.79167 17.225 4.575C17.5917 5.35833 17.825 6.16667 17.925 7ZM14 19L13.7 17.5C13.5 17.4167 13.3127 17.3293 13.138 17.238C12.9633 17.1467 12.784 17.034 12.6 16.9L11.15 17.35L10.15 15.65L11.3 14.65C11.2667 14.4167 11.25 14.2 11.25 14C11.25 13.8 11.2667 13.5833 11.3 13.35L10.15 12.35L11.15 10.65L12.6 11.1C12.7833 10.9667 12.9627 10.8543 13.138 10.763C13.3133 10.6717 13.5007 10.584 13.7 10.5L14 9H16L16.3 10.5C16.5 10.5833 16.6877 10.675 16.863 10.775C17.0383 10.875 17.2173 11 17.4 11.15L18.85 10.65L19.85 12.4L18.7 13.4C18.7333 13.6 18.75 13.8083 18.75 14.025C18.75 14.2417 18.7333 14.45 18.7 14.65L19.85 15.65L18.85 17.35L17.4 16.9C17.2167 17.0333 17.0377 17.146 16.863 17.238C16.6883 17.33 16.5007 17.4173 16.3 17.5L16 19H14ZM15 16C15.55 16 16.021 15.8043 16.413 15.413C16.805 15.0217 17.0007 14.5507 17 14C16.9993 13.4493 16.8037 12.9787 16.413 12.588C16.0223 12.1973 15.5513 12.0013 15 12C14.4487 11.9987 13.978 12.1947 13.588 12.588C13.198 12.9813 13.002 13.452 13 14C12.998 14.548 13.194 15.019 13.588 15.413C13.982 15.807 14.4527 16.0027 15 16Z" fill="#00BF72"/>
</svg>
