<svg width="16" height="14" viewBox="0 0 16 14" fill="none" xmlns="http://www.w3.org/2000/svg">
<path d="M7.99984 6.99967C7.60427 6.99967 7.2176 7.11697 6.8887 7.33673C6.5598 7.5565 6.30345 7.86885 6.15208 8.23431C6.0007 8.59976 5.9611 9.00189 6.03827 9.38985C6.11544 9.77782 6.30592 10.1342 6.58562 10.4139C6.86533 10.6936 7.22169 10.8841 7.60966 10.9612C7.99762 11.0384 8.39975 10.9988 8.7652 10.8474C9.13066 10.6961 9.44301 10.4397 9.66278 10.1108C9.88254 9.78192 9.99984 9.39524 9.99984 8.99967C9.99984 8.46924 9.78912 7.96053 9.41405 7.58546C9.03898 7.21039 8.53027 6.99967 7.99984 6.99967ZM7.99984 9.66634C7.86798 9.66634 7.73909 9.62724 7.62946 9.55399C7.51982 9.48073 7.43438 9.37661 7.38392 9.2548C7.33346 9.13298 7.32026 8.99893 7.34598 8.86961C7.3717 8.74029 7.4352 8.6215 7.52843 8.52827C7.62167 8.43503 7.74046 8.37154 7.86978 8.34582C7.9991 8.32009 8.13314 8.3333 8.25496 8.38375C8.37678 8.43421 8.4809 8.51966 8.55415 8.62929C8.6274 8.73893 8.6665 8.86782 8.6665 8.99967C8.6665 9.17649 8.59627 9.34605 8.47124 9.47108C8.34622 9.5961 8.17665 9.66634 7.99984 9.66634ZM7.5265 5.47301C7.58991 5.5337 7.66467 5.58128 7.7465 5.61301C7.8263 5.64828 7.91259 5.6665 7.99984 5.6665C8.08708 5.6665 8.17337 5.64828 8.25317 5.61301C8.33501 5.58128 8.40977 5.5337 8.47317 5.47301L9.99984 3.97301C10.1289 3.84394 10.2014 3.66888 10.2014 3.48634C10.2014 3.30381 10.1289 3.12875 9.99984 2.99967C9.87077 2.8706 9.69571 2.79809 9.51317 2.79809C9.33064 2.79809 9.15558 2.8706 9.0265 2.99967L8.6665 3.39301V0.999674C8.6665 0.822863 8.59627 0.653294 8.47124 0.52827C8.34622 0.403246 8.17665 0.333008 7.99984 0.333008C7.82303 0.333008 7.65346 0.403246 7.52843 0.52827C7.40341 0.653294 7.33317 0.822863 7.33317 0.999674V3.39301L6.97317 2.99967C6.8441 2.8706 6.66904 2.79809 6.4865 2.79809C6.30397 2.79809 6.12891 2.8706 5.99984 2.99967C5.87077 3.12875 5.79825 3.30381 5.79825 3.48634C5.79825 3.66888 5.87077 3.84394 5.99984 3.97301L7.5265 5.47301ZM12.6665 8.99967C12.6665 8.86782 12.6274 8.73893 12.5542 8.62929C12.4809 8.51966 12.3768 8.43421 12.255 8.38375C12.1331 8.3333 11.9991 8.32009 11.8698 8.34582C11.7405 8.37154 11.6217 8.43503 11.5284 8.52827C11.4352 8.6215 11.3717 8.74029 11.346 8.86961C11.3203 8.99893 11.3335 9.13298 11.3839 9.2548C11.4344 9.37661 11.5198 9.48073 11.6295 9.55399C11.7391 9.62724 11.868 9.66634 11.9998 9.66634C12.1766 9.66634 12.3462 9.5961 12.4712 9.47108C12.5963 9.34605 12.6665 9.17649 12.6665 8.99967ZM13.3332 4.33301H11.3332C11.1564 4.33301 10.9868 4.40325 10.8618 4.52827C10.7367 4.65329 10.6665 4.82286 10.6665 4.99967C10.6665 5.17649 10.7367 5.34605 10.8618 5.47108C10.9868 5.5961 11.1564 5.66634 11.3332 5.66634H13.3332C13.51 5.66634 13.6796 5.73658 13.8046 5.8616C13.9296 5.98663 13.9998 6.1562 13.9998 6.33301V11.6663C13.9998 11.8432 13.9296 12.0127 13.8046 12.1377C13.6796 12.2628 13.51 12.333 13.3332 12.333H2.6665C2.48969 12.333 2.32012 12.2628 2.1951 12.1377C2.07008 12.0127 1.99984 11.8432 1.99984 11.6663V6.33301C1.99984 6.1562 2.07008 5.98663 2.1951 5.8616C2.32012 5.73658 2.48969 5.66634 2.6665 5.66634H4.6665C4.84332 5.66634 5.01288 5.5961 5.13791 5.47108C5.26293 5.34605 5.33317 5.17649 5.33317 4.99967C5.33317 4.82286 5.26293 4.65329 5.13791 4.52827C5.01288 4.40325 4.84332 4.33301 4.6665 4.33301H2.6665C2.13607 4.33301 1.62736 4.54372 1.25229 4.91879C0.877218 5.29387 0.666504 5.80257 0.666504 6.33301V11.6663C0.666504 12.1968 0.877218 12.7055 1.25229 13.0806C1.62736 13.4556 2.13607 13.6663 2.6665 13.6663H13.3332C13.8636 13.6663 14.3723 13.4556 14.7474 13.0806C15.1225 12.7055 15.3332 12.1968 15.3332 11.6663V6.33301C15.3332 5.80257 15.1225 5.29387 14.7474 4.91879C14.3723 4.54372 13.8636 4.33301 13.3332 4.33301ZM3.33317 8.99967C3.33317 9.13153 3.37227 9.26042 3.44552 9.37005C3.51878 9.47969 3.6229 9.56514 3.74472 9.61559C3.86653 9.66605 4.00058 9.67925 4.1299 9.65353C4.25922 9.62781 4.37801 9.56431 4.47124 9.47108C4.56448 9.37784 4.62797 9.25906 4.65369 9.12973C4.67942 9.00041 4.66622 8.86637 4.61576 8.74455C4.5653 8.62273 4.47985 8.51861 4.37022 8.44536C4.26058 8.37211 4.13169 8.33301 3.99984 8.33301C3.82303 8.33301 3.65346 8.40324 3.52843 8.52827C3.40341 8.65329 3.33317 8.82286 3.33317 8.99967Z" fill="white"/>
</svg>
